<svg xmlns="http://www.w3.org/2000/svg" width="13.648" height="9" viewBox="0 0 13.648 9"><defs><style>.a{fill:#f0ead7;}</style></defs><g transform="translate(-1078.676 -443.615)"><path class="a" d="M1085.5,444.165c2.743,0,5.335,2.952,6.133,3.95-.8,1-3.39,3.951-6.133,3.951s-5.335-2.952-6.133-3.951c.8-1,3.39-3.95,6.133-3.95m0-.55c-3.5,0-6.674,4.291-6.824,4.5v.008c.15.205,3.321,4.5,6.824,4.5s6.674-4.291,6.824-4.5v-.008c-.15-.2-3.321-4.5-6.824-4.5Zm0,1.647a2.854,2.854,0,1,1-2.854,2.853,2.857,2.857,0,0,1,2.854-2.853m0-.55a3.4,3.4,0,1,0,3.4,3.4,3.4,3.4,0,0,0-3.4-3.4Zm0,1.98a1.424,1.424,0,1,0,1.424,1.423A1.424,1.424,0,0,0,1085.5,446.692Z"/></g></svg>