<svg xmlns="http://www.w3.org/2000/svg" width="24" height="24" viewBox="0 0 24 24"><defs><style>.a{fill:none;}.b{fill:#f0ead7;}</style></defs><g transform="translate(2.497 12.5)"><rect class="a" width="24" height="24" transform="translate(-2.496 -12.5)"/><g transform="translate(0.537 -9.5)"><path class="b" d="M12.33,17.5a5.91,5.91,0,0,1-1.51-.2,13.9,13.9,0,0,1-6.07-3.78,13.59,13.59,0,0,1-4.21-8,5.2,5.2,0,0,1,2-4.73L2.71.67A.91.91,0,0,1,3.25.5.91.91,0,0,1,3.9.75l1.7,1.7a.91.91,0,0,1,.27.65,1,1,0,0,1-.27.65l-.85,1.1a2.65,2.65,0,0,0-.34,2.67c.85,2,2.77,5.49,6,6.22a2.69,2.69,0,0,0,.57.06,2.73,2.73,0,0,0,1.66-.57l1.31-1a1,1,0,0,1,.7-.31.94.94,0,0,1,.65.26l1.7,1.7a1,1,0,0,1,.07,1.21l-.11.13A6,6,0,0,1,12.3,17.5Z"/><path class="b" d="M3.25,1a.42.42,0,0,1,.3.11L5.25,2.8a.42.42,0,0,1,0,.59h0v.05l-.81,1A3.17,3.17,0,0,0,4,7.72c.89,2.1,2.9,5.73,6.39,6.51a3.08,3.08,0,0,0,.68.07,3.3,3.3,0,0,0,2-.67l1.3-1h.1a.4.4,0,0,1,.3-.12.38.38,0,0,1,.29.12l1.7,1.7a.45.45,0,0,1,0,.54l-.11.13a5.49,5.49,0,0,1-4.32,2A5.33,5.33,0,0,1,11,16.82a13.47,13.47,0,0,1-5.9-3.65A13.17,13.17,0,0,1,1,5.46,4.73,4.73,0,0,1,2.86,1.19L3,1.07A.39.39,0,0,1,3.25,1m0-1a1.35,1.35,0,0,0-.84.28L2.25.4A5.7,5.7,0,0,0,0,5.58a14.13,14.13,0,0,0,4.35,8.3,14.26,14.26,0,0,0,6.3,3.9,6.11,6.11,0,0,0,1.64.22,6.47,6.47,0,0,0,5.06-2.47l.1-.13a1.45,1.45,0,0,0-.1-1.87l-1.7-1.7a1.44,1.44,0,0,0-2,0l-1.3,1A2.23,2.23,0,0,1,11,13.3a1.75,1.75,0,0,1-.46-.05c-3.08-.68-4.91-4.07-5.69-5.92a2.17,2.17,0,0,1,.27-2.18L6,4.1a1.42,1.42,0,0,0,0-2L4.26.4a1.46,1.46,0,0,0-1-.4Z"/></g></g></svg>